<mxfile host="65bd71144e">
    <diagram id="3OWMYcYgLVgra24or4N6" name="Page-1">
        <mxGraphModel dx="746" dy="466" grid="1" gridSize="10" guides="1" tooltips="1" connect="1" arrows="1" fold="1" page="1" pageScale="1" pageWidth="850" pageHeight="1100" math="0" shadow="0">
            <root>
                <mxCell id="0"/>
                <mxCell id="1" parent="0"/>
                <mxCell id="4" value="&lt;h1&gt;Constraint Solver Algorithim for Scheduling&lt;/h1&gt;" style="text;html=1;strokeColor=none;fillColor=none;align=center;verticalAlign=middle;whiteSpace=wrap;rounded=0;" parent="1" vertex="1">
                    <mxGeometry x="130" y="10" width="520" height="40" as="geometry"/>
                </mxCell>
                <mxCell id="9" style="edgeStyle=none;html=1;entryX=0;entryY=0.5;entryDx=0;entryDy=0;" parent="1" source="5" target="6" edge="1">
                    <mxGeometry relative="1" as="geometry"/>
                </mxCell>
                <mxCell id="5" value="Node Consistency" style="rounded=0;whiteSpace=wrap;html=1;" parent="1" vertex="1">
                    <mxGeometry x="102" y="80" width="159" height="40" as="geometry"/>
                </mxCell>
                <mxCell id="10" style="edgeStyle=none;html=1;" parent="1" source="6" target="7" edge="1">
                    <mxGeometry relative="1" as="geometry"/>
                </mxCell>
                <mxCell id="6" value="Arc Consistency" style="rounded=0;whiteSpace=wrap;html=1;" parent="1" vertex="1">
                    <mxGeometry x="301" y="80" width="160" height="40" as="geometry"/>
                </mxCell>
                <mxCell id="7" value="Backtracking&amp;nbsp;" style="rounded=0;whiteSpace=wrap;html=1;" parent="1" vertex="1">
                    <mxGeometry x="501" y="80" width="160" height="40" as="geometry"/>
                </mxCell>
                <mxCell id="11" value="&lt;h1&gt;Node Consistency&lt;/h1&gt;&lt;h2&gt;Defination&lt;/h2&gt;&lt;div&gt;Eliminating values in the domains of variables that do not satusfy the corresponding unary Consraints.&lt;/div&gt;&lt;div&gt;&lt;br&gt;&lt;/div&gt;&lt;h2&gt;Relevance&lt;/h2&gt;&lt;div&gt;While node consistency is not effective enough to eliminate the need for a backtracking algorithim, it does reduce the saerch space significantly to allow working with those values that are absolutely necessary.&lt;/div&gt;&lt;div&gt;&lt;br&gt;&lt;/div&gt;&lt;h2&gt;Implementation&lt;/h2&gt;&lt;div&gt;Going through each&amp;nbsp;&lt;/div&gt;&lt;div&gt;&lt;br&gt;&lt;/div&gt;" style="text;html=1;strokeColor=#2D7600;fillColor=#60a917;spacing=5;spacingTop=-20;whiteSpace=wrap;overflow=hidden;rounded=0;fontColor=#ffffff;" parent="1" vertex="1">
                    <mxGeometry x="200" y="80" width="279" height="570" as="geometry"/>
                </mxCell>
            </root>
        </mxGraphModel>
    </diagram>
</mxfile>